<svg width="82" height="72" viewBox="0 0 82 72" fill="none" xmlns="http://www.w3.org/2000/svg">
<g id="blockonomics">
<path id="Vector" d="M45.0785 1.66824L45.2468 1.5L50.6306 6.54734L44.4055 13.1089L41.7136 12.0994L36.498 10.2487L37.3393 9.4075L45.0785 1.66824Z" fill="#B7B373" stroke="#B7B373"/>
<path id="Vector_2" d="M60.557 6.71558L65.7726 11.5947L66.1091 11.9312L63.2489 14.7913L55.5096 22.1941L50.2941 16.642L58.7063 8.56627L59.884 7.38856L60.557 6.71558Z" fill="#B7B373" stroke="#B7B373"/>
<path id="Vector_3" d="M75.699 11.7629L80.9146 16.642L81.2511 16.9785L68.9692 29.2604L62.2394 35.6537L61.7347 34.476L59.3793 28.0827L61.0617 26.232L62.7442 24.5495L64.2584 23.2036L75.699 11.7629Z" fill="#B7B373" stroke="#B7B373"/>
<path id="Vector_4" d="M26.5716 13.7819C26.5716 13.7819 32.178 13.4086 35.6568 14.1184C37.8151 14.5587 39.0156 14.9339 41.0406 15.8008C42.8243 16.5644 43.7935 17.0908 45.415 18.1562C48.1374 19.945 49.4967 21.2553 51.64 23.7083C52.6259 24.8366 53.169 25.487 53.9955 26.7367C55.5193 29.0411 56.1951 30.4946 57.0239 33.13C57.5883 34.9248 57.769 35.9781 58.0333 37.8409C58.3293 39.9266 58.4483 41.1195 58.3698 43.2247C58.3206 44.5444 58.2145 45.2815 58.0333 46.5896C57.8318 48.0449 57.7693 48.8799 57.3604 50.291C56.9664 51.6503 56.6023 52.3684 56.0144 53.6559C55.2085 55.4208 54.7362 56.4165 53.659 58.0302C52.2623 60.1226 51.2769 61.1768 49.4529 62.9093C48.0987 64.1955 47.2928 64.883 45.7515 65.9377C42.9866 67.8297 41.2427 68.7512 38.0122 69.6391C36.72 69.9943 32.1236 70.8168 27.7493 70.4803C24.0807 70.1981 22.3654 70.1439 19.337 68.7979C16.3087 67.4519 13.785 66.2742 11.4295 64.2553C9.07411 62.2363 7.25593 60.3166 6.55044 59.2079C5.60392 57.7206 4.75557 56.6072 4.02677 55.0018C3.61307 54.0906 2.84258 51.9087 2.51258 50.964C1.84974 49.0662 1.73674 47.9131 1.50311 45.9166C1.1671 43.0452 1.1671 41.3852 1.50311 38.5138C1.73674 36.5173 1.91408 35.3855 2.51258 33.4665C3.52756 30.2121 6.55045 25.7272 6.55045 25.7272C6.55045 25.7272 8.31141 23.226 10.4201 21.1846C12.5287 19.1433 14.9963 17.4608 17.8228 16.1373C20.6494 14.8138 20.6386 14.929 22.5337 14.4548C24.0845 14.0668 26.5716 13.7819 26.5716 13.7819ZM26.4033 20.5117C24.2331 20.8888 23.028 21.2896 21.0195 22.1941C18.7588 23.2122 17.4778 23.8995 15.6357 25.559C15.0834 26.0565 14.7987 26.3632 14.2897 26.905C12.4903 28.8205 11.367 29.909 10.2518 32.2888C9.86351 33.1175 9.37178 34.1395 9.24236 34.476C9.11295 34.8125 8.71983 35.7605 8.56939 36.6632C8.40114 37.6726 8.2329 39.3551 8.06465 41.5422C7.89641 43.7294 7.95012 44.6035 8.2329 46.4213C8.39946 47.4921 8.56643 48.0842 8.90588 49.1133C9.40326 50.6211 9.80185 51.4353 10.5883 52.8146C11.3828 54.2081 11.1491 54.1606 12.9437 56.1795C14.7384 58.1985 16.8695 59.8809 19.337 61.2269C21.8046 62.5728 22.0957 62.8041 24.0479 63.2458C25.4635 63.5662 26.2997 63.5088 27.7493 63.5823C29.5866 63.6755 30.6228 63.6755 32.4601 63.5823C33.9097 63.5088 34.7409 63.5435 36.1615 63.2458C39.672 62.5101 41.994 60.8904 44.2373 58.8715C46.4805 56.8525 48.3908 54.7692 49.9576 51.4687C50.8486 49.5917 51.2561 48.4633 51.64 46.4213C51.8841 45.1235 51.8083 45.5801 51.9765 43.0565C52.1448 40.5328 50.777 33.5624 47.2657 28.9239C44.7879 25.6507 42.5548 23.7644 39.1899 22.1941C35.825 20.6238 35.9764 20.8888 33.8061 20.5117C30.9578 20.0167 29.2516 20.0167 26.4033 20.5117Z" fill="#673C45" stroke="#673C45"/>
<path id="Vector_5" d="M20.8513 29.5969C20.8513 29.5969 28.8702 28.4428 33.6379 29.9334C34.9887 30.3557 35.908 30.3824 37.0027 31.2793C37.3621 31.5738 36.7672 30.954 37.844 32.1205C38.9207 33.287 39.2572 35.1938 38.8534 37.8409C38.4497 40.4879 36.498 41.374 36.498 41.374C36.498 41.374 38.0683 41.7666 38.8534 43.2247C39.6386 44.6828 39.8629 46.7018 39.5264 49.2815C39.1899 51.8613 38.7397 51.5041 37.6757 52.4782C36.8943 53.1935 36.3045 53.4321 35.3203 53.8241C34.1948 54.2724 34.6473 54.1606 32.2919 54.4971C29.9365 54.8336 20.3465 54.4971 20.3465 54.4971C20.3465 54.4971 19.657 52.9029 20.01 51.9734C20.3745 51.014 22.029 50.291 22.029 50.291V33.803L21.1877 33.6347C20.2904 33.5226 19.8979 32.9057 20.01 31.7841C20.1222 30.6624 20.8513 29.5969 20.8513 29.5969ZM27.4128 33.2983C26.7398 33.803 26.7398 33.9712 26.7398 33.9712V40.028C26.7398 40.028 29.6742 40.5063 31.4507 40.028C31.8519 39.92 32.0914 39.8831 32.4601 39.6916C33.371 39.2186 33.8471 38.6555 34.1426 37.6726C34.4477 36.6581 34.3279 35.9027 33.8061 34.9807C33.44 34.3338 32.4601 33.6347 32.4601 33.6347C32.4601 33.6347 28.0858 32.7935 27.4128 33.2983ZM26.7398 43.7294V50.7957L27.4128 51.1322C27.4128 51.1322 29.9221 51.5197 31.4507 51.1322C32.4208 50.8863 33.0547 50.7837 33.8061 50.1227C34.2994 49.6888 34.5585 49.3814 34.8156 48.7768C35.3322 47.5614 34.9277 46.0849 34.4791 45.4119C34.4791 45.4119 33.3702 44.204 32.4601 43.7294C30.4794 42.6965 26.7398 43.7294 26.7398 43.7294Z" fill="#673C45" stroke="#673C45"/>
</g>
</svg>
